<mxfile host="app.diagrams.net" modified="2021-06-22T13:21:34.575Z" agent="5.0 (Windows NT 10.0; Win64; x64) AppleWebKit/537.36 (KHTML, like Gecko) Chrome/91.0.4472.77 Safari/537.36" etag="qTfyA736KBpi8x7XnnVu" version="14.8.0" type="github">
  <diagram id="WnLwp4ExM2qePB6-YMyn" name="Page-1">
    <mxGraphModel dx="1038" dy="547" grid="1" gridSize="10" guides="1" tooltips="1" connect="1" arrows="1" fold="1" page="1" pageScale="1" pageWidth="827" pageHeight="1169" math="0" shadow="0">
      <root>
        <mxCell id="0" />
        <mxCell id="1" parent="0" />
        <mxCell id="U1IaLZJ8rhXTIGkVFUsF-1" value="" style="rounded=0;whiteSpace=wrap;html=1;sketch=1;" vertex="1" parent="1">
          <mxGeometry x="109" y="160" width="50" height="40" as="geometry" />
        </mxCell>
        <mxCell id="U1IaLZJ8rhXTIGkVFUsF-2" value="" style="rounded=0;whiteSpace=wrap;html=1;sketch=1;" vertex="1" parent="1">
          <mxGeometry x="189" y="160" width="50" height="40" as="geometry" />
        </mxCell>
        <mxCell id="U1IaLZJ8rhXTIGkVFUsF-3" value="" style="rounded=0;whiteSpace=wrap;html=1;sketch=1;" vertex="1" parent="1">
          <mxGeometry x="269" y="160" width="50" height="40" as="geometry" />
        </mxCell>
        <mxCell id="U1IaLZJ8rhXTIGkVFUsF-4" value="" style="rounded=0;whiteSpace=wrap;html=1;sketch=1;" vertex="1" parent="1">
          <mxGeometry x="349" y="160" width="50" height="40" as="geometry" />
        </mxCell>
        <mxCell id="U1IaLZJ8rhXTIGkVFUsF-5" value="" style="rounded=0;whiteSpace=wrap;html=1;sketch=1;" vertex="1" parent="1">
          <mxGeometry x="429" y="160" width="50" height="40" as="geometry" />
        </mxCell>
        <mxCell id="U1IaLZJ8rhXTIGkVFUsF-6" value="" style="rounded=0;whiteSpace=wrap;html=1;sketch=1;" vertex="1" parent="1">
          <mxGeometry x="509" y="160" width="50" height="40" as="geometry" />
        </mxCell>
        <mxCell id="U1IaLZJ8rhXTIGkVFUsF-7" value="" style="rounded=0;whiteSpace=wrap;html=1;sketch=1;" vertex="1" parent="1">
          <mxGeometry x="589" y="160" width="50" height="40" as="geometry" />
        </mxCell>
        <mxCell id="U1IaLZJ8rhXTIGkVFUsF-8" value="" style="rounded=0;whiteSpace=wrap;html=1;sketch=1;" vertex="1" parent="1">
          <mxGeometry x="669" y="160" width="50" height="40" as="geometry" />
        </mxCell>
        <mxCell id="U1IaLZJ8rhXTIGkVFUsF-10" value="" style="rounded=0;whiteSpace=wrap;html=1;sketch=1;" vertex="1" parent="1">
          <mxGeometry x="109" y="310" width="50" height="40" as="geometry" />
        </mxCell>
        <mxCell id="U1IaLZJ8rhXTIGkVFUsF-11" value="" style="rounded=0;whiteSpace=wrap;html=1;sketch=1;" vertex="1" parent="1">
          <mxGeometry x="189" y="310" width="50" height="40" as="geometry" />
        </mxCell>
        <mxCell id="U1IaLZJ8rhXTIGkVFUsF-12" value="" style="rounded=0;whiteSpace=wrap;html=1;sketch=1;" vertex="1" parent="1">
          <mxGeometry x="269" y="310" width="50" height="40" as="geometry" />
        </mxCell>
        <mxCell id="U1IaLZJ8rhXTIGkVFUsF-13" value="" style="rounded=0;whiteSpace=wrap;html=1;sketch=1;" vertex="1" parent="1">
          <mxGeometry x="349" y="310" width="50" height="40" as="geometry" />
        </mxCell>
        <mxCell id="U1IaLZJ8rhXTIGkVFUsF-14" value="" style="rounded=0;whiteSpace=wrap;html=1;sketch=1;" vertex="1" parent="1">
          <mxGeometry x="429" y="310" width="50" height="40" as="geometry" />
        </mxCell>
        <mxCell id="U1IaLZJ8rhXTIGkVFUsF-15" value="" style="rounded=0;whiteSpace=wrap;html=1;sketch=1;" vertex="1" parent="1">
          <mxGeometry x="509" y="310" width="50" height="40" as="geometry" />
        </mxCell>
        <mxCell id="U1IaLZJ8rhXTIGkVFUsF-16" value="" style="rounded=0;whiteSpace=wrap;html=1;sketch=1;" vertex="1" parent="1">
          <mxGeometry x="589" y="310" width="50" height="40" as="geometry" />
        </mxCell>
        <mxCell id="U1IaLZJ8rhXTIGkVFUsF-17" value="" style="rounded=0;whiteSpace=wrap;html=1;sketch=1;" vertex="1" parent="1">
          <mxGeometry x="669" y="310" width="50" height="40" as="geometry" />
        </mxCell>
        <mxCell id="U1IaLZJ8rhXTIGkVFUsF-18" value="&lt;h1&gt;&lt;font style=&quot;font-size: 24px&quot; color=&quot;#ff0000&quot; face=&quot;中国式手写风&quot;&gt;Quick Sort&lt;/font&gt;&lt;/h1&gt;" style="text;html=1;strokeColor=#6c8ebf;fillColor=#dae8fc;align=center;verticalAlign=middle;whiteSpace=wrap;rounded=0;sketch=1;" vertex="1" parent="1">
          <mxGeometry x="319" y="50" width="180" height="60" as="geometry" />
        </mxCell>
      </root>
    </mxGraphModel>
  </diagram>
</mxfile>
